<?xml version="1.0" standalone="no"?>
<!DOCTYPE svg PUBLIC "-//W3C//DTD SVG 20010904//EN"
 "http://www.w3.org/TR/2001/REC-SVG-20010904/DTD/svg10.dtd">
<svg version="1.0" xmlns="http://www.w3.org/2000/svg"
 width="2160.000000pt" height="490.000000pt" viewBox="0 0 2160.000000 490.000000"
 preserveAspectRatio="xMidYMid meet">

<g transform="translate(0.000000,490.000000) scale(0.100000,-0.100000)"
fill="#000000" stroke="none">
<path d="M682 4820 c-40 -11 -97 -32 -125 -47 -76 -41 -198 -165 -236 -240
-65 -130 -61 10 -61 -2065 l0 -1887 25 -79 c45 -142 149 -265 286 -337 129
-68 109 -66 1023 -62 808 3 823 4 921 26 466 105 849 396 1050 799 52 103 97
237 122 359 25 124 25 432 0 556 -40 197 -118 377 -234 538 l-63 88 67 98
c304 447 342 997 101 1465 -208 405 -578 682 -1045 780 -107 22 -119 23 -933
25 -788 2 -828 1 -898 -17z m1784 -263 c456 -101 800 -402 938 -817 46 -140
60 -242 53 -403 -11 -292 -119 -540 -331 -763 l-98 -104 98 -103 c150 -157
243 -322 294 -522 55 -214 42 -477 -33 -676 -135 -360 -407 -622 -768 -743
-186 -62 -167 -61 -1054 -61 l-810 0 -56 28 c-66 32 -132 99 -162 165 l-22 47
0 1870 0 1870 24 45 c44 86 133 160 216 181 17 4 392 6 835 5 695 -2 815 -5
876 -19z"/>
<path d="M1960 3880 l0 -130 153 0 c161 0 232 -12 309 -51 59 -30 130 -100
164 -161 27 -49 29 -61 29 -153 0 -86 -3 -107 -25 -150 -29 -59 -98 -131 -160
-168 -94 -55 -119 -57 -677 -57 l-513 0 0 -130 0 -131 553 3 552 3 80 28 c118
42 181 81 265 166 197 199 244 467 123 711 -54 110 -162 214 -285 274 -124 61
-207 76 -408 76 l-160 0 0 -130z"/>
<path d="M1580 2050 l0 -130 343 0 c364 0 408 -4 499 -51 59 -30 140 -110 168
-166 35 -69 40 -187 10 -265 -40 -106 -151 -201 -275 -233 -50 -13 -148 -15
-632 -15 l-573 0 0 -130 0 -131 613 3 612 3 80 27 c154 52 276 148 360 283 69
111 89 180 89 310 1 126 -11 179 -63 279 -63 123 -190 237 -329 295 -106 44
-180 51 -553 51 l-349 0 0 -130z"/>
<path d="M4580 2520 l0 -1230 214 0 213 0 7 61 c3 34 6 84 6 111 l0 48 78 -78
c60 -61 96 -88 162 -120 309 -153 703 -50 926 240 258 335 272 841 33 1188
-103 151 -249 259 -419 312 -64 20 -96 23 -215 23 -126 -1 -147 -3 -213 -27
-103 -37 -175 -82 -254 -159 l-68 -66 0 463 0 464 -235 0 -235 0 0 -1230z
m1048 118 c285 -106 384 -547 184 -811 -56 -72 -134 -128 -213 -152 -86 -26
-215 -18 -294 20 -120 57 -220 191 -251 334 -85 403 230 737 574 609z"/>
<path d="M15460 2520 l0 -1230 214 0 213 0 7 61 c3 34 6 84 6 111 l0 48 78
-78 c60 -61 96 -88 162 -120 309 -153 703 -50 926 240 258 335 272 841 33
1188 -103 151 -249 259 -419 312 -64 20 -96 23 -215 23 -126 -1 -147 -3 -213
-27 -103 -37 -175 -82 -254 -159 l-68 -66 0 463 0 464 -235 0 -235 0 0 -1230z
m1048 118 c285 -106 384 -547 184 -811 -56 -72 -134 -128 -213 -152 -86 -26
-215 -18 -294 20 -120 57 -220 191 -251 334 -85 403 230 737 574 609z"/>
<path d="M19530 2520 l0 -1230 214 0 213 0 7 61 c3 34 6 84 6 111 l0 48 78
-78 c60 -61 96 -88 162 -120 309 -153 703 -50 926 240 258 335 272 841 33
1188 -103 151 -249 259 -419 312 -64 20 -96 23 -215 23 -126 -1 -147 -3 -213
-27 -103 -37 -175 -82 -254 -159 l-68 -66 0 463 0 464 -235 0 -235 0 0 -1230z
m1048 118 c285 -106 384 -547 184 -811 -56 -72 -134 -128 -213 -152 -86 -26
-215 -18 -294 20 -120 57 -220 191 -251 334 -85 403 230 737 574 609z"/>
<path d="M8608 3070 c-309 -52 -564 -276 -667 -585 -41 -125 -55 -234 -48
-379 12 -251 100 -458 263 -621 254 -254 690 -317 1039 -151 160 76 279 186
346 318 17 33 29 61 27 63 -2 2 -94 32 -205 68 l-203 65 -35 -49 c-42 -59
-111 -111 -185 -141 -44 -18 -76 -22 -160 -22 -98 -1 -110 1 -170 30 -110 53
-194 158 -234 293 -30 102 -101 91 609 91 l625 0 0 83 c0 510 -268 868 -700
937 -74 11 -233 11 -302 0z m270 -365 c56 -18 132 -74 165 -122 35 -50 74
-139 82 -185 l7 -38 -382 0 -382 0 7 37 c21 113 118 244 216 291 81 39 196 46
287 17z"/>
<path d="M10568 3070 c-309 -52 -564 -276 -667 -585 -41 -125 -55 -234 -48
-379 12 -251 100 -458 263 -621 254 -254 690 -317 1039 -151 160 76 279 186
346 318 17 33 29 61 27 63 -2 2 -94 32 -205 68 l-203 65 -35 -49 c-42 -59
-111 -111 -185 -141 -44 -18 -76 -22 -160 -22 -98 -1 -110 1 -170 30 -110 53
-194 158 -234 293 -30 102 -101 91 609 91 l625 0 0 83 c0 510 -268 868 -700
937 -74 11 -233 11 -302 0z m270 -365 c56 -18 132 -74 165 -122 35 -50 74
-139 82 -185 l7 -38 -382 0 -382 0 7 37 c21 113 118 244 216 291 81 39 196 46
287 17z"/>
<path d="M14178 3070 c-309 -52 -564 -276 -667 -585 -41 -125 -55 -234 -48
-379 12 -251 100 -458 263 -621 254 -254 690 -317 1039 -151 160 76 279 186
346 318 17 33 29 61 27 63 -2 2 -94 32 -205 68 l-203 65 -35 -49 c-42 -59
-111 -111 -185 -141 -44 -18 -76 -22 -160 -22 -98 -1 -110 1 -170 30 -110 53
-194 158 -234 293 -30 102 -101 91 609 91 l625 0 0 83 c0 510 -268 868 -700
937 -74 11 -233 11 -302 0z m270 -365 c56 -18 132 -74 165 -122 35 -50 74
-139 82 -185 l7 -38 -382 0 -382 0 7 37 c21 113 118 244 216 291 81 39 196 46
287 17z"/>
<path d="M18395 3070 c-122 -25 -242 -94 -328 -191 l-57 -64 0 55 c0 30 -3 79
-6 108 l-7 52 -213 0 -214 0 0 -870 0 -870 235 0 234 0 3 557 3 558 29 60 c63
128 174 197 316 198 135 0 231 -65 282 -192 23 -56 23 -59 26 -618 l3 -563
234 0 235 0 0 513 c0 691 -8 766 -96 946 -106 215 -302 333 -548 330 -50 -1
-109 -5 -131 -9z"/>
<path d="M7502 3049 c-127 -16 -268 -111 -332 -222 -32 -56 -40 -48 -40 41 0
31 -3 81 -6 110 l-7 52 -213 0 -214 0 0 -870 0 -870 235 0 235 0 0 478 c0 391
3 488 15 535 37 141 117 232 237 268 56 17 87 20 166 17 53 -3 104 -7 111 -9
12 -3 19 33 37 191 32 274 34 256 -23 268 -75 17 -133 20 -201 11z"/>
<path d="M11800 2845 l0 -185 410 -2 410 -3 -420 -528 -420 -528 0 -155 0
-154 735 0 735 0 0 185 0 185 -450 2 -449 3 424 530 424 530 1 153 0 152 -700
0 -700 0 0 -185z"/>
</g>
</svg>
